<svg version="1.1" viewBox="0.0 0.0 720.0 720.0" fill="none" stroke="none" stroke-linecap="square" stroke-miterlimit="10" xmlns:xlink="http://www.w3.org/1999/xlink" xmlns="http://www.w3.org/2000/svg"><clipPath id="p.0"><path d="m0 0l720.0 0l0 720.0l-720.0 0l0 -720.0z" clip-rule="nonzero"/></clipPath><g clip-path="url(#p.0)"><path fill="#000000" fill-opacity="0.0" d="m0 0l720.0 0l0 720.0l-720.0 0z" fill-rule="evenodd"/><path fill="#3c78d8" d="m52.05362 49.02949l670.9606 0l0 670.96063l-670.9606 0z" fill-rule="evenodd"/><path stroke="#000000" stroke-width="1.0" stroke-linejoin="round" stroke-linecap="butt" d="m52.05362 49.02949l670.9606 0l0 670.96063l-670.9606 0z" fill-rule="evenodd"/><path fill="#a4c2f4" d="m0 0l670.96063 0l0 670.96063l-670.96063 0z" fill-rule="evenodd"/><path stroke="#000000" stroke-width="1.0" stroke-linejoin="round" stroke-linecap="butt" d="m0 0l670.96063 0l0 670.96063l-670.96063 0z" fill-rule="evenodd"/><path fill="#000000" d="m167.68504 167.68504l0 167.68504l-167.68504 0l0 -167.68504z" fill-rule="evenodd"/><path fill="#000000" d="m335.3701 0l0 167.68504l-167.68504 0l0 -167.68504z" fill-rule="evenodd"/><path fill="#000000" d="m335.3701 335.3701l0 167.68503l-167.68504 0l0 -167.68503z" fill-rule="evenodd"/><path fill="#000000" d="m503.0551 167.68504l0 167.68504l-167.68503 0l0 -167.68504z" fill-rule="evenodd"/><path fill="#000000" d="m670.7402 0l0 167.68504l-167.68506 0l0 -167.68504z" fill-rule="evenodd"/><path fill="#000000" d="m167.68504 503.0551l0 167.68506l-167.68504 0l0 -167.68506z" fill-rule="evenodd"/><path fill="#000000" d="m503.0551 503.0551l0 167.68506l-167.68503 0l0 -167.68506z" fill-rule="evenodd"/><path fill="#000000" d="m670.7402 335.3701l0 167.68503l-167.68506 0l0 -167.68503z" fill-rule="evenodd"/></g></svg>