<svg version="1.1" viewBox="0.0 0.0 720.0 720.0" fill="none" stroke="none" stroke-linecap="square" stroke-miterlimit="10" xmlns:xlink="http://www.w3.org/1999/xlink" xmlns="http://www.w3.org/2000/svg"><clipPath id="p.0"><path d="m0 0l720.0 0l0 720.0l-720.0 0l0 -720.0z" clip-rule="nonzero"/></clipPath><g clip-path="url(#p.0)"><path fill="#000000" fill-opacity="0.0" d="m0 0l720.0 0l0 720.0l-720.0 0z" fill-rule="evenodd"/><path fill="#3c78d8" d="m52.05362 49.02949l670.9606 0l0 670.96063l-670.9606 0z" fill-rule="evenodd"/><path stroke="#000000" stroke-width="1.0" stroke-linejoin="round" stroke-linecap="butt" d="m52.05362 49.02949l670.9606 0l0 670.96063l-670.9606 0z" fill-rule="evenodd"/><path fill="#a4c2f4" d="m0 0l670.96063 0l0 670.96063l-670.96063 0z" fill-rule="evenodd"/><path stroke="#000000" stroke-width="1.0" stroke-linejoin="round" stroke-linecap="butt" d="m0 0l670.96063 0l0 670.96063l-670.96063 0z" fill-rule="evenodd"/><path fill="#000000" fill-opacity="0.0" d="m155.02362 335.48032l0 0c0 -99.66348 80.79321 -180.4567 180.4567 -180.4567l0 0c47.860077 0 93.75995 19.012344 127.60214 52.854538c33.842194 33.842194 52.854553 79.74208 52.854553 127.60216l0 0c0 99.66348 -80.79321 180.4567 -180.4567 180.4567l0 0c-99.66348 0 -180.4567 -80.79321 -180.4567 -180.4567z" fill-rule="evenodd"/><path stroke="#ffffff" stroke-width="12.0" stroke-linejoin="round" stroke-linecap="butt" d="m155.02362 335.48032l0 0c0 -99.66348 80.79321 -180.4567 180.4567 -180.4567l0 0c47.860077 0 93.75995 19.012344 127.60214 52.854538c33.842194 33.842194 52.854553 79.74208 52.854553 127.60216l0 0c0 99.66348 -80.79321 180.4567 -180.4567 180.4567l0 0c-99.66348 0 -180.4567 -80.79321 -180.4567 -180.4567z" fill-rule="evenodd"/><path fill="#000000" d="m194.3622 335.48032l0 0c0 -77.93738 63.18074 -141.11812 141.11812 -141.11812l0 0c37.42685 0 73.3208 14.867767 99.78558 41.33255c26.464752 26.464767 41.33252 62.35872 41.33252 99.78557l0 0c0 77.93738 -63.180725 141.1181 -141.1181 141.1181l0 0c-77.93738 0 -141.11812 -63.180725 -141.11812 -141.1181z" fill-rule="evenodd"/><path fill="#000000" d="m294.55118 98.19685l0 0c0 -22.604538 18.324615 -40.92914 40.92914 -40.92914l0 0c10.855072 0 21.265564 4.3121643 28.941254 11.987869c7.67572 7.6756973 11.9878845 18.086182 11.9878845 28.941269l0 0c0 22.60453 -18.324615 40.92914 -40.92914 40.92914l0 0c-22.604523 0 -40.92914 -18.324608 -40.92914 -40.92914z" fill-rule="evenodd"/><path fill="#000000" d="m531.4803 335.48032l0 0c0 -22.604523 18.324646 -40.92914 40.92914 -40.92914l0 0c10.855103 0 21.265564 4.3121643 28.941284 11.987854c7.67572 7.67572 11.987854 18.086212 11.987854 28.941284l0 0c0 22.604523 -18.324585 40.92914 -40.92914 40.92914l0 0c-22.604492 0 -40.92914 -18.324615 -40.92914 -40.92914z" fill-rule="evenodd"/><path fill="#000000" d="m294.55118 572.7638l0 0c0 -22.604553 18.324615 -40.92914 40.92914 -40.92914l0 0c10.855072 0 21.265564 4.312134 28.941254 11.987854c7.67572 7.67572 11.9878845 18.086182 11.9878845 28.941284l0 0c0 22.604492 -18.324615 40.92914 -40.92914 40.92914l0 0c-22.604523 0 -40.92914 -18.324646 -40.92914 -40.92914z" fill-rule="evenodd"/><path fill="#000000" d="m57.622047 335.48032l0 0c0 -22.604523 18.3246 -40.92914 40.92913 -40.92914l0 0c10.855087 0 21.265572 4.3121643 28.941269 11.987854c7.675705 7.67572 11.987869 18.086212 11.987869 28.941284l0 0c0 22.604523 -18.3246 40.92914 -40.92914 40.92914l0 0c-22.60453 0 -40.92913 -18.324615 -40.92913 -40.92914z" fill-rule="evenodd"/></g></svg>