<svg version="1.1" viewBox="0.0 0.0 720.0 720.0" fill="none" stroke="none" stroke-linecap="square" stroke-miterlimit="10" xmlns:xlink="http://www.w3.org/1999/xlink" xmlns="http://www.w3.org/2000/svg"><clipPath id="p.0"><path d="m0 0l720.0 0l0 720.0l-720.0 0l0 -720.0z" clip-rule="nonzero"/></clipPath><g clip-path="url(#p.0)"><path fill="#000000" fill-opacity="0.0" d="m0 0l720.0 0l0 720.0l-720.0 0z" fill-rule="evenodd"/><path fill="#3c78d8" d="m52.05362 49.02949l670.9606 0l0 670.96063l-670.9606 0z" fill-rule="evenodd"/><path stroke="#000000" stroke-width="1.0" stroke-linejoin="round" stroke-linecap="butt" d="m52.05362 49.02949l670.9606 0l0 670.96063l-670.9606 0z" fill-rule="evenodd"/><path fill="#a4c2f4" d="m0 0l670.96063 0l0 670.96063l-670.96063 0z" fill-rule="evenodd"/><path stroke="#000000" stroke-width="1.0" stroke-linejoin="round" stroke-linecap="butt" d="m0 0l670.96063 0l0 670.96063l-670.96063 0z" fill-rule="evenodd"/><path fill="#000000" d="m27.627296 436.99738l0 0c0 -116.57123 94.49965 -211.07086 211.07086 -211.07086l0 0c55.979477 0 109.66618 22.237762 149.24965 61.821228c39.583466 39.583466 61.821228 93.27017 61.821228 149.24963l0 0c0 116.57123 -94.499664 211.07086 -211.07088 211.07086l0 0c-116.57122 0 -211.07086 -94.49963 -211.07086 -211.07086z" fill-rule="evenodd"/><path fill="#000000" d="m357.58414 163.52599l53.88977 26.740158l-69.7323 140.44095l-53.88974 -26.740143z" fill-rule="evenodd"/><path fill="#000000" d="m360.00043 87.7926l11.118103 -0.88188934l5.228363 67.84252l-11.118103 0.881897z" fill-rule="evenodd"/><path fill="#000000" d="m408.609 87.194145l10.614197 3.4330673l-21.039398 64.72441l-10.614166 -3.433075z" fill-rule="evenodd"/><path fill="#000000" d="m456.51526 114.983284l8.37796 7.370079l-45.039368 51.02362l-8.37796 -7.3700714z" fill-rule="evenodd"/></g></svg>